<svg width="1528" height="882" viewBox="0 0 1528 882" fill="none" xmlns="http://www.w3.org/2000/svg">
<g opacity="0.6">
<path d="M78.0018 332.94C78.6739 332.94 79.2187 332.395 79.2187 331.723C79.2187 331.051 78.6739 330.506 78.0018 330.506C77.3297 330.506 76.7849 331.051 76.7849 331.723C76.7849 332.395 77.3297 332.94 78.0018 332.94Z" fill="white"/>
<path d="M285.116 526.669C285.116 527.399 284.629 527.886 283.899 527.886C283.169 527.886 282.682 527.399 282.682 526.669C282.682 525.939 283.169 525.452 283.899 525.452C284.629 525.452 285.116 526.182 285.116 526.669Z" fill="white"/>
<path d="M537.498 590.677C537.498 591.407 537.012 591.894 536.282 591.894C535.551 591.894 535.065 591.407 535.065 590.677C535.065 589.947 535.551 589.46 536.282 589.46C537.012 589.703 537.498 590.19 537.498 590.677Z" fill="white"/>
<path d="M180.707 593.111C181.379 593.111 181.924 592.566 181.924 591.894C181.924 591.222 181.379 590.677 180.707 590.677C180.035 590.677 179.49 591.222 179.49 591.894C179.49 592.566 180.035 593.111 180.707 593.111Z" fill="white"/>
<path d="M666.245 485.538C666.245 486.268 665.758 486.755 665.028 486.755C664.298 486.755 663.811 486.268 663.811 485.538C663.811 484.808 664.298 484.321 665.028 484.321C665.758 484.564 666.245 485.051 666.245 485.538Z" fill="white"/>
<path d="M637.526 645.194C638.198 645.194 638.743 644.649 638.743 643.977C638.743 643.305 638.198 642.76 637.526 642.76C636.854 642.76 636.309 643.305 636.309 643.977C636.309 644.649 636.854 645.194 637.526 645.194Z" fill="white"/>
<path d="M583.984 449.275C583.984 450.005 583.497 450.491 582.767 450.491C582.037 450.491 581.55 450.005 581.55 449.275C581.55 448.544 582.037 448.058 582.767 448.058C583.497 448.301 583.984 448.788 583.984 449.275Z" fill="white"/>
<path d="M386.848 530.076C387.52 530.076 388.065 529.532 388.065 528.859C388.065 528.187 387.52 527.643 386.848 527.643C386.176 527.643 385.631 528.187 385.631 528.859C385.631 529.532 386.176 530.076 386.848 530.076Z" fill="white"/>
<path d="M496.855 589.217C497.527 589.217 498.071 588.672 498.071 588C498.071 587.328 497.527 586.783 496.855 586.783C496.183 586.783 495.638 587.328 495.638 588C495.638 588.672 496.183 589.217 496.855 589.217Z" fill="white"/>
<path d="M804.24 505.982C804.912 505.982 805.457 505.437 805.457 504.765C805.457 504.093 804.912 503.548 804.24 503.548C803.568 503.548 803.023 504.093 803.023 504.765C803.023 505.437 803.568 505.982 804.24 505.982Z" fill="white"/>
<path d="M905.242 559.281C905.914 559.281 906.459 558.736 906.459 558.064C906.459 557.392 905.914 556.847 905.242 556.847C904.57 556.847 904.025 557.392 904.025 558.064C904.025 558.736 904.57 559.281 905.242 559.281Z" fill="white"/>
<path d="M765.786 502.087C765.786 502.818 765.3 503.304 764.57 503.304C763.839 503.304 763.353 502.818 763.353 502.087C763.353 501.357 763.839 500.871 764.57 500.871C765.3 500.871 765.786 501.357 765.786 502.087Z" fill="white"/>
<path d="M423.354 244.351C423.354 245.324 422.624 246.054 421.651 246.054C420.677 246.054 419.947 245.324 419.947 244.351C419.947 243.377 420.677 242.647 421.651 242.647C422.624 242.404 423.354 243.377 423.354 244.351Z" fill="white"/>
<path d="M212.103 200.056C212.103 201.03 211.372 201.76 210.399 201.76C209.425 201.76 208.695 201.03 208.695 200.056C208.695 199.083 209.425 198.353 210.399 198.353C211.372 198.109 212.103 199.083 212.103 200.056Z" fill="white"/>
<path d="M320.163 357.765C320.163 358.739 319.432 359.469 318.459 359.469C317.485 359.469 316.755 358.739 316.755 357.765C316.755 356.792 317.485 356.062 318.459 356.062C319.432 356.062 320.163 356.792 320.163 357.765Z" fill="white"/>
<path d="M766.76 417.393C767.701 417.393 768.464 416.63 768.464 415.689C768.464 414.748 767.701 413.985 766.76 413.985C765.819 413.985 765.056 414.748 765.056 415.689C765.056 416.63 765.819 417.393 766.76 417.393Z" fill="white"/>
<path d="M55.6113 372.611C56.5522 372.611 57.315 371.848 57.315 370.907C57.315 369.966 56.5522 369.204 55.6113 369.204C54.6704 369.204 53.9077 369.966 53.9077 370.907C53.9077 371.848 54.6704 372.611 55.6113 372.611Z" fill="white"/>
<path d="M40.5217 559.281C40.5217 560.011 40.035 560.498 39.3048 560.498C38.5747 560.498 38.088 560.011 38.088 559.281C38.088 558.551 38.5747 558.064 39.3048 558.064C40.035 558.064 40.5217 558.551 40.5217 559.281Z" fill="white"/>
<path d="M70.7007 167.444C70.7007 168.417 69.9706 169.147 68.9971 169.147C68.0235 169.147 67.2935 168.417 67.2935 167.444C67.2935 166.47 68.0235 165.74 68.9971 165.74C69.9706 165.497 70.7007 166.227 70.7007 167.444Z" fill="white"/>
<path d="M837.339 335.374C837.339 336.104 836.853 336.591 836.122 336.591C835.392 336.591 834.906 336.104 834.906 335.374C834.906 334.644 835.392 334.157 836.122 334.157C836.853 334.157 837.339 334.644 837.339 335.374Z" fill="white"/>
<path d="M1179.77 249.705C1180.71 249.705 1181.47 248.942 1181.47 248.002C1181.47 247.061 1180.71 246.298 1179.77 246.298C1178.83 246.298 1178.07 247.061 1178.07 248.002C1178.07 248.942 1178.83 249.705 1179.77 249.705Z" fill="white"/>
<path d="M970.223 203.707C970.223 204.68 969.493 205.41 968.519 205.41C967.546 205.41 966.816 204.68 966.816 203.707C966.816 202.733 967.546 202.003 968.519 202.003C969.493 201.76 970.223 202.733 970.223 203.707Z" fill="white"/>
<path d="M1078.53 361.416C1078.53 362.389 1077.8 363.119 1076.82 363.119C1075.85 363.119 1075.12 362.389 1075.12 361.416C1075.12 360.442 1075.85 359.712 1076.82 359.712C1077.8 359.712 1078.53 360.442 1078.53 361.416Z" fill="white"/>
<path d="M813.732 376.261C814.673 376.261 815.436 375.499 815.436 374.558C815.436 373.617 814.673 372.854 813.732 372.854C812.791 372.854 812.028 373.617 812.028 374.558C812.028 375.499 812.791 376.261 813.732 376.261Z" fill="white"/>
<path d="M979.472 815.071C979.472 815.802 978.985 816.288 978.255 816.288C977.525 816.288 977.038 815.802 977.038 815.071C977.038 814.341 977.525 813.854 978.255 813.854C978.985 813.854 979.472 814.341 979.472 815.071Z" fill="white"/>
<path d="M1080.47 868.37C1080.47 869.1 1079.99 869.587 1079.26 869.587C1078.53 869.587 1078.04 869.1 1078.04 868.37C1078.04 867.64 1078.53 867.153 1079.26 867.153C1079.99 867.153 1080.47 867.64 1080.47 868.37Z" fill="white"/>
<path d="M939.801 812.395C939.801 813.125 939.315 813.612 938.585 813.612C937.854 813.612 937.368 813.125 937.368 812.395C937.368 811.664 937.854 811.178 938.585 811.178C939.315 811.178 939.801 811.664 939.801 812.395Z" fill="white"/>
<path d="M942.478 725.994C942.478 726.968 941.748 727.698 940.775 727.698C939.801 727.698 939.071 726.968 939.071 725.994C939.071 725.021 939.801 724.291 940.775 724.291C941.748 724.047 942.478 725.021 942.478 725.994Z" fill="white"/>
<path d="M1010.14 646.898C1010.81 646.898 1011.35 646.353 1011.35 645.681C1011.35 645.009 1010.81 644.464 1010.14 644.464C1009.47 644.464 1008.92 645.009 1008.92 645.681C1008.92 646.353 1009.47 646.898 1010.14 646.898Z" fill="white"/>
<path d="M1144.24 514.013C1144.24 514.986 1143.51 515.717 1142.53 515.717C1141.56 515.717 1140.83 514.986 1140.83 514.013C1140.83 513.039 1141.56 512.309 1142.53 512.309C1143.26 512.066 1144.24 513.039 1144.24 514.013Z" fill="white"/>
<path d="M1250.59 673.668C1251.54 673.668 1252.3 672.905 1252.3 671.964C1252.3 671.024 1251.54 670.261 1250.59 670.261C1249.65 670.261 1248.89 671.024 1248.89 671.964C1248.89 672.905 1249.65 673.668 1250.59 673.668Z" fill="white"/>
<path d="M989.693 684.865C989.693 685.838 988.963 686.568 987.99 686.568C987.016 686.568 986.286 685.838 986.286 684.865C986.286 683.891 987.016 683.161 987.99 683.161C988.72 683.161 989.693 683.891 989.693 684.865Z" fill="white"/>
<path d="M40.5219 764.693C41.1939 764.693 41.7388 764.148 41.7388 763.476C41.7388 762.804 41.1939 762.259 40.5219 762.259C39.8498 762.259 39.305 762.804 39.305 763.476C39.305 764.148 39.8498 764.693 40.5219 764.693Z" fill="white"/>
<path d="M294.121 827.483C294.121 828.214 293.635 828.7 292.904 828.7C292.174 828.7 291.688 828.214 291.688 827.483C291.688 826.753 292.174 826.267 292.904 826.267C293.635 826.51 294.121 826.997 294.121 827.483Z" fill="white"/>
<path d="M422.868 722.588C422.868 723.318 422.381 723.805 421.651 723.805C420.921 723.805 420.434 723.318 420.434 722.588C420.434 721.858 420.921 721.371 421.651 721.371C422.381 721.371 422.868 721.858 422.868 722.588Z" fill="white"/>
<path d="M393.906 882C394.578 882 395.123 881.455 395.123 880.783C395.123 880.111 394.578 879.566 393.906 879.566C393.234 879.566 392.689 880.111 392.689 880.783C392.689 881.455 393.234 882 393.906 882Z" fill="white"/>
<path d="M340.606 686.081C340.606 686.811 340.119 687.298 339.389 687.298C338.659 687.298 338.172 686.811 338.172 686.081C338.172 685.351 338.659 684.864 339.389 684.864C340.119 685.108 340.606 685.594 340.606 686.081Z" fill="white"/>
<path d="M143.227 766.882C143.899 766.882 144.444 766.337 144.444 765.665C144.444 764.993 143.899 764.448 143.227 764.448C142.555 764.448 142.01 764.993 142.01 765.665C142.01 766.337 142.555 766.882 143.227 766.882Z" fill="white"/>
<path d="M254.45 824.806C254.45 825.536 253.964 826.023 253.233 826.023C252.503 826.023 252.017 825.536 252.017 824.806C252.017 824.076 252.503 823.589 253.233 823.589C253.964 823.832 254.45 824.319 254.45 824.806Z" fill="white"/>
<path d="M562.08 741.57C562.08 742.301 561.593 742.787 560.863 742.787C560.133 742.787 559.646 742.301 559.646 741.57C559.646 740.84 560.133 740.354 560.863 740.354C561.593 740.354 562.08 740.84 562.08 741.57Z" fill="white"/>
<path d="M522.409 738.894C522.409 739.624 521.922 740.111 521.192 740.111C520.462 740.111 519.975 739.624 519.975 738.894C519.975 738.164 520.462 737.677 521.192 737.677C521.922 737.677 522.409 738.164 522.409 738.894Z" fill="white"/>
<path d="M178.03 482.861C178.971 482.861 179.734 482.098 179.734 481.157C179.734 480.216 178.971 479.454 178.03 479.454C177.089 479.454 176.327 480.216 176.327 481.157C176.327 482.098 177.089 482.861 178.03 482.861Z" fill="white"/>
<path d="M76.7851 594.815C76.7851 595.788 76.055 596.518 75.0815 596.518C74.108 596.518 73.3779 595.788 73.3779 594.815C73.3779 593.841 74.108 593.111 75.0815 593.111C76.055 592.868 76.7851 593.598 76.7851 594.815Z" fill="white"/>
<path d="M525.086 652.495C525.086 653.469 524.356 654.199 523.383 654.199C522.409 654.199 521.679 653.469 521.679 652.495C521.679 651.522 522.409 650.792 523.383 650.792C524.356 650.548 525.086 651.522 525.086 652.495Z" fill="white"/>
<path d="M593.719 572.18C593.719 572.91 593.232 573.397 592.502 573.397C591.772 573.397 591.285 572.91 591.285 572.18C591.285 571.45 591.772 570.963 592.502 570.963C593.232 570.963 593.719 571.45 593.719 572.18Z" fill="white"/>
<path d="M572.301 611.365C572.301 612.338 571.571 613.068 570.597 613.068C569.624 613.068 568.894 612.338 568.894 611.365C568.894 610.391 569.624 609.661 570.597 609.661C571.328 609.661 572.301 610.391 572.301 611.365Z" fill="white"/>
<path d="M166.834 283.778C166.834 284.508 166.348 284.995 165.618 284.995C164.887 284.995 164.401 284.508 164.401 283.778C164.401 283.048 164.887 282.561 165.618 282.561C166.348 282.804 166.834 283.291 166.834 283.778Z" fill="white"/>
<path d="M137.873 443.434C138.545 443.434 139.09 442.889 139.09 442.217C139.09 441.545 138.545 441 137.873 441C137.201 441 136.656 441.545 136.656 442.217C136.656 442.889 137.201 443.434 137.873 443.434Z" fill="white"/>
<path d="M84.5729 247.515C84.5729 248.245 84.0862 248.732 83.356 248.732C82.6259 248.732 82.1392 248.245 82.1392 247.515C82.1392 246.785 82.6259 246.298 83.356 246.298C84.0862 246.541 84.5729 247.028 84.5729 247.515Z" fill="white"/>
<path d="M306.047 302.761C306.047 303.491 305.56 303.978 304.83 303.978C304.1 303.978 303.613 303.491 303.613 302.761C303.613 302.031 304.1 301.544 304.83 301.544C305.56 301.788 306.047 302.275 306.047 302.761Z" fill="white"/>
<path d="M407.048 356.061C407.048 356.791 406.562 357.278 405.832 357.278C405.101 357.278 404.615 356.791 404.615 356.061C404.615 355.331 405.101 354.844 405.832 354.844C406.562 355.088 407.048 355.574 407.048 356.061Z" fill="white"/>
<path d="M266.376 300.328C266.376 301.058 265.889 301.545 265.159 301.545C264.429 301.545 263.942 301.058 263.942 300.328C263.942 299.598 264.429 299.111 265.159 299.111C265.889 299.111 266.376 299.598 266.376 300.328Z" fill="white"/>
<path d="M269.053 213.929C269.053 214.903 268.323 215.633 267.349 215.633C266.376 215.633 265.646 214.903 265.646 213.929C265.646 212.955 266.376 212.225 267.349 212.225C268.323 211.982 269.053 212.712 269.053 213.929Z" fill="white"/>
<path d="M336.712 134.588C337.384 134.588 337.929 134.043 337.929 133.371C337.929 132.699 337.384 132.154 336.712 132.154C336.04 132.154 335.495 132.699 335.495 133.371C335.495 134.043 336.04 134.588 336.712 134.588Z" fill="white"/>
<path d="M468.866 3.40728C469.807 3.40728 470.57 2.64454 470.57 1.70364C470.57 0.762747 469.807 0 468.866 0C467.925 0 467.162 0.762747 467.162 1.70364C467.162 2.64454 467.925 3.40728 468.866 3.40728Z" fill="white"/>
<path d="M577.169 161.359C578.11 161.359 578.873 160.597 578.873 159.656C578.873 158.715 578.11 157.952 577.169 157.952C576.228 157.952 575.465 158.715 575.465 159.656C575.465 160.597 576.228 161.359 577.169 161.359Z" fill="white"/>
<path d="M316.268 172.798C316.268 173.772 315.538 174.502 314.564 174.502C313.591 174.502 312.861 173.772 312.861 172.798C312.861 171.825 313.591 171.094 314.564 171.094C315.295 170.851 316.268 171.825 316.268 172.798Z" fill="white"/>
<path d="M94.3084 370.421C94.3084 371.151 93.8217 371.637 93.0915 371.637C92.3614 371.637 91.8746 371.151 91.8746 370.421C91.8746 369.69 92.3614 369.204 93.0915 369.204C93.8217 369.204 94.3084 369.69 94.3084 370.421Z" fill="white"/>
<path d="M72.6475 409.605C72.6475 410.578 71.9174 411.308 70.9439 411.308C69.9704 411.308 69.2402 410.578 69.2402 409.605C69.2402 408.631 69.9704 407.901 70.9439 407.901C71.9174 407.658 72.6475 408.631 72.6475 409.605Z" fill="white"/>
<path d="M1077.8 175.962C1078.47 175.962 1079.01 175.417 1079.01 174.745C1079.01 174.073 1078.47 173.528 1077.8 173.528C1077.12 173.528 1076.58 174.073 1076.58 174.745C1076.58 175.417 1077.12 175.962 1077.8 175.962Z" fill="white"/>
<path d="M951.483 200.543C951.483 201.273 950.997 201.76 950.266 201.76C949.536 201.76 949.05 201.273 949.05 200.543C949.05 199.813 949.536 199.326 950.266 199.326C950.997 199.326 951.483 199.813 951.483 200.543Z" fill="white"/>
<path d="M1043.97 397.436C1044.64 397.436 1045.18 396.891 1045.18 396.219C1045.18 395.547 1044.64 395.002 1043.97 395.002C1043.29 395.002 1042.75 395.547 1042.75 396.219C1042.75 396.891 1043.29 397.436 1043.97 397.436Z" fill="white"/>
<path d="M1218.23 370.664C1218.23 371.394 1217.74 371.881 1217.01 371.881C1216.28 371.881 1215.79 371.394 1215.79 370.664C1215.79 369.934 1216.28 369.447 1217.01 369.447C1217.74 369.447 1218.23 369.934 1218.23 370.664Z" fill="white"/>
<path d="M1134.99 335.374C1135.66 335.374 1136.21 334.829 1136.21 334.157C1136.21 333.485 1135.66 332.94 1134.99 332.94C1134.32 332.94 1133.77 333.485 1133.77 334.157C1133.77 334.829 1134.32 335.374 1134.99 335.374Z" fill="white"/>
<path d="M940.044 413.742C940.044 414.472 939.558 414.959 938.827 414.959C938.097 414.959 937.611 414.472 937.611 413.742C937.611 413.012 938.097 412.525 938.827 412.525C939.314 412.768 940.044 413.255 940.044 413.742Z" fill="white"/>
<path d="M973.631 130.937C974.572 130.937 975.334 130.174 975.334 129.233C975.334 128.293 974.572 127.53 973.631 127.53C972.69 127.53 971.927 128.293 971.927 129.233C971.927 130.174 972.69 130.937 973.631 130.937Z" fill="white"/>
<path d="M1164.68 239.727C1165.35 239.727 1165.9 239.182 1165.9 238.51C1165.9 237.838 1165.35 237.293 1164.68 237.293C1164.01 237.293 1163.47 237.838 1163.47 238.51C1163.47 239.182 1164.01 239.727 1164.68 239.727Z" fill="white"/>
<path d="M937.611 142.133C937.611 142.863 937.124 143.35 936.394 143.35C935.664 143.35 935.177 142.863 935.177 142.133C935.177 141.403 935.664 140.916 936.394 140.916C937.124 141.159 937.611 141.646 937.611 142.133Z" fill="white"/>
<path d="M1142.29 279.398C1143.23 279.398 1144 278.635 1144 277.694C1144 276.753 1143.23 275.99 1142.29 275.99C1141.35 275.99 1140.59 276.753 1140.59 277.694C1140.59 278.635 1141.35 279.398 1142.29 279.398Z" fill="white"/>
<path d="M1039.83 302.519C1039.83 303.249 1039.34 303.736 1038.61 303.736C1037.88 303.736 1037.4 303.249 1037.4 302.519C1037.4 301.789 1037.88 301.302 1038.61 301.302C1039.34 301.302 1039.83 302.032 1039.83 302.519Z" fill="white"/>
<path d="M950.997 402.06C950.997 402.79 950.51 403.277 949.78 403.277C949.05 403.277 948.563 402.79 948.563 402.06C948.563 401.33 949.05 400.843 949.78 400.843C950.51 400.843 950.997 401.33 950.997 402.06Z" fill="white"/>
<path d="M1018.17 341.702C1018.17 342.676 1017.44 343.406 1016.47 343.406C1015.49 343.406 1014.76 342.676 1014.76 341.702C1014.76 340.729 1015.49 339.999 1016.47 339.999C1017.44 339.999 1018.17 340.729 1018.17 341.702Z" fill="white"/>
<path d="M1029.61 139.942C1030.55 139.942 1031.31 139.179 1031.31 138.238C1031.31 137.297 1030.55 136.535 1029.61 136.535C1028.67 136.535 1027.9 137.297 1027.9 138.238C1027.9 139.179 1028.67 139.942 1029.61 139.942Z" fill="white"/>
<path d="M1127.45 254.816C1127.45 255.547 1126.96 256.033 1126.23 256.033C1125.5 256.033 1125.01 255.547 1125.01 254.816C1125.01 254.086 1125.5 253.6 1126.23 253.6C1126.96 253.6 1127.45 254.086 1127.45 254.816Z" fill="white"/>
<path d="M1099.7 413.011C1099.7 413.741 1099.21 414.228 1098.48 414.228C1097.75 414.228 1097.27 413.741 1097.27 413.011C1097.27 412.281 1097.75 411.794 1098.48 411.794C1099.21 412.038 1099.7 412.525 1099.7 413.011Z" fill="white"/>
<path d="M1045.18 218.553C1045.18 219.283 1044.7 219.77 1043.97 219.77C1043.24 219.77 1042.75 219.283 1042.75 218.553C1042.75 217.823 1043.24 217.336 1043.97 217.336C1044.7 217.336 1045.18 217.823 1045.18 218.553Z" fill="white"/>
<path d="M1054.92 341.215C1054.92 341.946 1054.43 342.432 1053.7 342.432C1052.97 342.432 1052.49 341.946 1052.49 341.215C1052.49 340.485 1052.97 339.999 1053.7 339.999C1054.43 339.999 1054.92 340.729 1054.92 341.215Z" fill="white"/>
<path d="M1031.55 382.103C1032.5 382.103 1033.26 381.34 1033.26 380.399C1033.26 379.458 1032.5 378.695 1031.55 378.695C1030.61 378.695 1029.85 379.458 1029.85 380.399C1029.85 381.34 1030.61 382.103 1031.55 382.103Z" fill="white"/>
<path d="M225.245 426.64C225.917 426.64 226.462 426.095 226.462 425.423C226.462 424.751 225.917 424.207 225.245 424.207C224.573 424.207 224.028 424.751 224.028 425.423C224.028 426.095 224.573 426.64 225.245 426.64Z" fill="white"/>
<path d="M409.238 393.298C410.179 393.298 410.942 392.536 410.942 391.595C410.942 390.654 410.179 389.891 409.238 389.891C408.298 389.891 407.535 390.654 407.535 391.595C407.535 392.536 408.298 393.298 409.238 393.298Z" fill="white"/>
<path d="M479.575 311.279C479.575 312.01 479.088 312.496 478.358 312.496C477.628 312.496 477.141 312.01 477.141 311.279C477.141 310.549 477.628 310.062 478.358 310.062C479.088 310.062 479.575 310.549 479.575 311.279Z" fill="white"/>
<path d="M612.702 179.613C612.702 180.586 611.972 181.316 610.998 181.316C610.025 181.316 609.295 180.586 609.295 179.613C609.295 178.639 610.025 177.909 610.998 177.909C611.728 177.666 612.702 178.639 612.702 179.613Z" fill="white"/>
<path d="M458.157 350.464C458.157 351.437 457.427 352.168 456.454 352.168C455.48 352.168 454.75 351.437 454.75 350.464C454.75 349.49 455.48 348.76 456.454 348.76C457.184 348.76 458.157 349.49 458.157 350.464Z" fill="white"/>
<path d="M219.404 137.265C220.345 137.265 221.108 136.502 221.108 135.561C221.108 134.62 220.345 133.857 219.404 133.857C218.463 133.857 217.7 134.62 217.7 135.561C217.7 136.502 218.463 137.265 219.404 137.265Z" fill="white"/>
<path d="M592.745 177.665C593.417 177.665 593.962 177.12 593.962 176.448C593.962 175.776 593.417 175.231 592.745 175.231C592.073 175.231 591.528 175.776 591.528 176.448C591.528 177.12 592.073 177.665 592.745 177.665Z" fill="white"/>
<path d="M686.445 373.585C687.117 373.585 687.662 373.04 687.662 372.368C687.662 371.696 687.117 371.151 686.445 371.151C685.773 371.151 685.229 371.696 685.229 372.368C685.229 373.04 685.773 373.585 686.445 373.585Z" fill="white"/>
<path d="M582.28 389.648C582.28 390.378 581.793 390.864 581.063 390.864C580.333 390.864 579.846 390.378 579.846 389.648C579.846 388.917 580.333 388.431 581.063 388.431C581.793 388.674 582.28 389.161 582.28 389.648Z" fill="white"/>
<path d="M616.109 106.842C617.05 106.842 617.813 106.08 617.813 105.139C617.813 104.198 617.05 103.435 616.109 103.435C615.168 103.435 614.406 104.198 614.406 105.139C614.406 106.08 615.168 106.842 616.109 106.842Z" fill="white"/>
<path d="M580.09 118.282C580.09 119.012 579.603 119.499 578.873 119.499C578.143 119.499 577.656 119.012 577.656 118.282C577.656 117.552 578.143 117.065 578.873 117.065C579.603 117.065 580.09 117.552 580.09 118.282Z" fill="white"/>
<path d="M682.064 278.424C682.064 279.154 681.578 279.641 680.848 279.641C680.117 279.641 679.631 279.154 679.631 278.424C679.631 277.694 680.117 277.207 680.848 277.207C681.578 277.45 682.064 277.937 682.064 278.424Z" fill="white"/>
<path d="M593.475 377.965C593.475 378.695 592.988 379.182 592.258 379.182C591.528 379.182 591.041 378.695 591.041 377.965C591.041 377.235 591.528 376.748 592.258 376.748C592.988 376.748 593.475 377.235 593.475 377.965Z" fill="white"/>
<path d="M660.647 317.851C660.647 318.824 659.917 319.555 658.944 319.555C657.97 319.555 657.24 318.824 657.24 317.851C657.24 316.877 657.97 316.147 658.944 316.147C659.674 315.904 660.647 316.877 660.647 317.851Z" fill="white"/>
<path d="M671.842 115.848C672.783 115.848 673.546 115.085 673.546 114.144C673.546 113.203 672.783 112.44 671.842 112.44C670.902 112.44 670.139 113.203 670.139 114.144C670.139 115.085 670.902 115.848 671.842 115.848Z" fill="white"/>
<path d="M687.662 194.459C687.662 195.189 687.176 195.675 686.445 195.675C685.715 195.675 685.229 195.189 685.229 194.459C685.229 193.728 685.715 193.242 686.445 193.242C687.176 193.242 687.662 193.728 687.662 194.459Z" fill="white"/>
<path d="M674.033 358.252C674.974 358.252 675.737 357.489 675.737 356.548C675.737 355.607 674.974 354.844 674.033 354.844C673.092 354.844 672.329 355.607 672.329 356.548C672.329 357.489 673.092 358.252 674.033 358.252Z" fill="white"/>
<path d="M789.15 183.507C789.823 183.507 790.367 182.962 790.367 182.29C790.367 181.618 789.823 181.073 789.15 181.073C788.478 181.073 787.934 181.618 787.934 182.29C787.934 182.962 788.478 183.507 789.15 183.507Z" fill="white"/>
<path d="M1076.09 558.551C1076.09 559.281 1076.58 559.768 1077.31 559.768C1078.04 559.768 1078.53 559.281 1078.53 558.551C1078.53 557.821 1078.04 557.334 1077.31 557.334C1076.58 557.578 1076.09 558.065 1076.09 558.551Z" fill="white"/>
<path d="M1204.6 585.323C1205.27 585.323 1205.81 584.778 1205.81 584.106C1205.81 583.434 1205.27 582.889 1204.6 582.889C1203.92 582.889 1203.38 583.434 1203.38 584.106C1203.38 584.778 1203.92 585.323 1204.6 585.323Z" fill="white"/>
<path d="M582.036 377.479C582.036 378.209 582.523 378.695 583.253 378.695C583.983 378.695 584.47 378.209 584.47 377.479C584.47 376.748 583.983 376.262 583.253 376.262C582.523 376.262 582.036 376.748 582.036 377.479Z" fill="white"/>
<path d="M329.654 441.486C329.654 442.217 330.141 442.703 330.871 442.703C331.601 442.703 332.088 442.217 332.088 441.486C332.088 440.756 331.601 440.27 330.871 440.27C330.141 440.27 329.654 440.756 329.654 441.486Z" fill="white"/>
<path d="M685.229 442.461C685.229 443.191 685.715 443.677 686.445 443.677C687.176 443.677 687.662 443.191 687.662 442.461C687.662 441.73 687.176 441.244 686.445 441.244C685.715 441.487 685.229 441.974 685.229 442.461Z" fill="white"/>
<path d="M200.907 336.347C200.907 337.077 201.394 337.564 202.124 337.564C202.854 337.564 203.341 337.077 203.341 336.347C203.341 335.617 202.854 335.13 202.124 335.13C201.394 335.374 200.907 335.861 200.907 336.347Z" fill="white"/>
<path d="M228.653 494.786C228.653 495.516 229.139 496.003 229.869 496.003C230.6 496.003 231.086 495.516 231.086 494.786C231.086 494.056 230.6 493.569 229.869 493.569C229.139 493.569 228.653 494.056 228.653 494.786Z" fill="white"/>
<path d="M283.169 300.084C283.169 300.814 283.656 301.301 284.386 301.301C285.116 301.301 285.603 300.814 285.603 300.084C285.603 299.354 285.116 298.867 284.386 298.867C283.656 298.867 283.169 299.597 283.169 300.084Z" fill="white"/>
<path d="M1086.31 620.612C1086.31 621.343 1086.8 621.829 1087.53 621.829C1088.26 621.829 1088.75 621.343 1088.75 620.612C1088.75 619.882 1088.26 619.396 1087.53 619.396C1086.8 619.396 1086.31 619.882 1086.31 620.612Z" fill="white"/>
<path d="M975.091 520.098C975.091 520.828 975.578 521.315 976.308 521.315C977.038 521.315 977.525 520.828 977.525 520.098C977.525 519.368 977.038 518.881 976.308 518.881C975.578 518.881 975.091 519.611 975.091 520.098Z" fill="white"/>
<path d="M985.313 673.911C985.313 674.641 985.8 675.128 986.53 675.128C987.26 675.128 987.747 674.641 987.747 673.911C987.747 673.181 987.26 672.694 986.53 672.694C985.8 672.694 985.313 673.181 985.313 673.911Z" fill="white"/>
<path d="M1039.83 479.21C1039.83 479.94 1040.32 480.427 1041.05 480.427C1041.78 480.427 1042.26 479.94 1042.26 479.21C1042.26 478.48 1041.78 477.993 1041.05 477.993C1040.32 478.237 1039.83 478.723 1039.83 479.21Z" fill="white"/>
<path d="M1050.05 307.629C1050.05 308.359 1050.54 308.846 1051.27 308.846C1052 308.846 1052.49 308.359 1052.49 307.629C1052.49 306.899 1052 306.412 1051.27 306.412C1050.54 306.412 1050.05 306.899 1050.05 307.629Z" fill="white"/>
<path d="M479.331 379.669C479.331 380.399 479.818 380.886 480.548 380.886C481.278 380.886 481.765 380.399 481.765 379.669C481.765 378.939 481.278 378.452 480.548 378.452C479.818 378.452 479.331 378.939 479.331 379.669Z" fill="white"/>
<path d="M370.298 440.027C370.97 440.027 371.515 439.482 371.515 438.81C371.515 438.138 370.97 437.593 370.298 437.593C369.626 437.593 369.081 438.138 369.081 438.81C369.081 439.482 369.626 440.027 370.298 440.027Z" fill="white"/>
<path d="M61.6955 355.331C61.6955 356.061 62.1823 356.548 62.9124 356.548C63.6425 356.548 64.1293 356.061 64.1293 355.331C64.1293 354.601 63.6425 354.114 62.9124 354.114C62.1823 354.358 61.6955 354.844 61.6955 355.331Z" fill="white"/>
<path d="M102.339 353.871C103.012 353.871 103.556 353.326 103.556 352.654C103.556 351.982 103.012 351.438 102.339 351.438C101.667 351.438 101.123 351.982 101.123 352.654C101.123 353.326 101.667 353.871 102.339 353.871Z" fill="white"/>
<path d="M505.373 569.26C506.314 569.26 507.076 568.497 507.076 567.556C507.076 566.615 506.314 565.853 505.373 565.853C504.432 565.853 503.669 566.615 503.669 567.556C503.669 568.497 504.432 569.26 505.373 569.26Z" fill="white"/>
<path d="M714.921 523.262C714.921 524.235 715.651 524.965 716.624 524.965C717.598 524.965 718.328 524.235 718.328 523.262C718.328 522.288 717.598 521.558 716.624 521.558C715.651 521.558 714.921 522.288 714.921 523.262Z" fill="white"/>
<path d="M546.747 208.575C546.747 209.548 547.477 210.278 548.451 210.278C549.424 210.278 550.154 209.548 550.154 208.575C550.154 207.601 549.424 206.871 548.451 206.871C547.72 206.871 546.747 207.601 546.747 208.575Z" fill="white"/>
<path d="M100.392 268.202C101.333 268.202 102.096 267.439 102.096 266.499C102.096 265.558 101.333 264.795 100.392 264.795C99.4515 264.795 98.6888 265.558 98.6888 266.499C98.6888 267.439 99.4515 268.202 100.392 268.202Z" fill="white"/>
<path d="M811.541 223.42C812.482 223.42 813.245 222.658 813.245 221.717C813.245 220.776 812.482 220.013 811.541 220.013C810.6 220.013 809.837 220.776 809.837 221.717C809.837 222.658 810.6 223.42 811.541 223.42Z" fill="white"/>
<path d="M679.388 625.724C679.388 626.454 679.874 626.941 680.604 626.941C681.335 626.941 681.821 626.454 681.821 625.724C681.821 624.994 681.335 624.507 680.604 624.507C679.874 624.507 679.388 624.994 679.388 625.724Z" fill="white"/>
<path d="M427.979 690.949C428.651 690.949 429.195 690.405 429.195 689.733C429.195 689.06 428.651 688.516 427.979 688.516C427.307 688.516 426.762 689.06 426.762 689.733C426.762 690.405 427.307 690.949 427.979 690.949Z" fill="white"/>
<path d="M782.58 690.949C782.58 691.679 783.066 692.166 783.796 692.166C784.527 692.166 785.013 691.679 785.013 690.949C785.013 690.219 784.527 689.732 783.796 689.732C783.066 689.732 782.58 690.219 782.58 690.949Z" fill="white"/>
<path d="M298.258 584.592C298.258 585.323 298.745 585.809 299.475 585.809C300.205 585.809 300.692 585.323 300.692 584.592C300.692 583.862 300.205 583.375 299.475 583.375C298.745 583.619 298.258 584.106 298.258 584.592Z" fill="white"/>
<path d="M325.76 743.031C325.76 743.761 326.247 744.248 326.977 744.248C327.707 744.248 328.194 743.761 328.194 743.031C328.194 742.301 327.707 741.814 326.977 741.814C326.49 741.814 325.76 742.301 325.76 743.031Z" fill="white"/>
<path d="M381.493 549.546C382.166 549.546 382.71 549.001 382.71 548.329C382.71 547.657 382.166 547.112 381.493 547.112C380.821 547.112 380.277 547.657 380.277 548.329C380.277 549.001 380.821 549.546 381.493 549.546Z" fill="white"/>
<path d="M576.439 627.914C576.439 628.644 576.926 629.131 577.656 629.131C578.386 629.131 578.873 628.644 578.873 627.914C578.873 627.184 578.386 626.697 577.656 626.697C576.926 626.697 576.439 627.184 576.439 627.914Z" fill="white"/>
<path d="M466.432 687.055C466.432 687.785 466.919 688.272 467.649 688.272C468.379 688.272 468.866 687.785 468.866 687.055C468.866 686.325 468.379 685.838 467.649 685.838C466.919 686.081 466.432 686.568 466.432 687.055Z" fill="white"/>
<path d="M840.017 224.88C840.017 225.611 840.503 226.097 841.233 226.097C841.964 226.097 842.45 225.611 842.45 224.88C842.45 224.15 841.964 223.664 841.233 223.664C840.503 223.664 840.017 224.394 840.017 224.88Z" fill="white"/>
<path d="M944.182 291.323C944.854 291.323 945.399 290.778 945.399 290.106C945.399 289.434 944.854 288.889 944.182 288.889C943.51 288.889 942.965 289.434 942.965 290.106C942.965 290.778 943.51 291.323 944.182 291.323Z" fill="white"/>
<path d="M738.285 228.288C738.957 228.288 739.501 227.743 739.501 227.071C739.501 226.399 738.957 225.854 738.285 225.854C737.612 225.854 737.068 226.399 737.068 227.071C737.068 227.743 737.612 228.288 738.285 228.288Z" fill="white"/>
<path d="M763.353 416.906C764.293 416.906 765.056 416.143 765.056 415.202C765.056 414.261 764.293 413.499 763.353 413.499C762.412 413.499 761.649 414.261 761.649 415.202C761.649 416.143 762.412 416.906 763.353 416.906Z" fill="white"/>
<path d="M972.9 370.664C972.9 371.637 973.631 372.367 974.604 372.367C975.578 372.367 976.308 371.637 976.308 370.664C976.308 369.69 975.578 368.96 974.604 368.96C973.631 368.96 972.9 369.69 972.9 370.664Z" fill="white"/>
<path d="M937.368 473.126C937.368 473.856 937.854 474.342 938.585 474.342C939.315 474.342 939.801 473.856 939.801 473.126C939.801 472.395 939.315 471.909 938.585 471.909C937.854 472.152 937.368 472.639 937.368 473.126Z" fill="white"/>
<path d="M685.959 538.351C686.631 538.351 687.175 537.806 687.175 537.134C687.175 536.462 686.631 535.917 685.959 535.917C685.287 535.917 684.742 536.462 684.742 537.134C684.742 537.806 685.287 538.351 685.959 538.351Z" fill="white"/>
<path d="M1041.53 539.568C1042.21 539.568 1042.75 539.023 1042.75 538.351C1042.75 537.679 1042.21 537.134 1041.53 537.134C1040.86 537.134 1040.32 537.679 1040.32 538.351C1040.32 539.023 1040.86 539.568 1041.53 539.568Z" fill="white"/>
<path d="M835.636 476.533C836.308 476.533 836.853 475.989 836.853 475.316C836.853 474.644 836.308 474.1 835.636 474.1C834.964 474.1 834.419 474.644 834.419 475.316C834.419 475.989 834.964 476.533 835.636 476.533Z" fill="white"/>
<path d="M724.412 534.457C724.412 535.187 724.899 535.674 725.629 535.674C726.359 535.674 726.846 535.187 726.846 534.457C726.846 533.727 726.359 533.24 725.629 533.24C724.899 533.483 724.412 533.97 724.412 534.457Z" fill="white"/>
<path d="M217.944 494.543C217.944 495.273 218.43 495.76 219.16 495.76C219.891 495.76 220.377 495.273 220.377 494.543C220.377 493.813 219.891 493.326 219.16 493.326C218.43 493.57 217.944 494.056 217.944 494.543Z" fill="white"/>
<path d="M322.353 560.985C323.025 560.985 323.57 560.44 323.57 559.768C323.57 559.096 323.025 558.551 322.353 558.551C321.681 558.551 321.136 559.096 321.136 559.768C321.136 560.44 321.681 560.985 322.353 560.985Z" fill="white"/>
<path d="M115.239 496.733C115.239 497.463 115.725 497.95 116.456 497.95C117.186 497.95 117.672 497.463 117.672 496.733C117.672 496.003 117.186 495.516 116.456 495.516C115.725 495.759 115.239 496.246 115.239 496.733Z" fill="white"/>
<path d="M139.576 684.863C139.576 685.837 140.306 686.567 141.28 686.567C142.253 686.567 142.984 685.837 142.984 684.863C142.984 683.89 142.253 683.16 141.28 683.16C140.55 682.917 139.576 683.89 139.576 684.863Z" fill="white"/>
<path d="M350.828 640.57C350.828 641.543 351.558 642.273 352.532 642.273C353.505 642.273 354.235 641.543 354.235 640.57C354.235 639.596 353.505 638.866 352.532 638.866C351.802 638.623 350.828 639.596 350.828 640.57Z" fill="white"/>
<path d="M315.295 742.787C315.295 743.517 315.782 744.004 316.512 744.004C317.242 744.004 317.729 743.517 317.729 742.787C317.729 742.057 317.242 741.57 316.512 741.57C315.782 741.814 315.295 742.3 315.295 742.787Z" fill="white"/>
<path d="M213.806 746.195C214.479 746.195 215.023 745.651 215.023 744.979C215.023 744.307 214.479 743.762 213.806 743.762C213.134 743.762 212.59 744.307 212.59 744.979C212.59 745.651 213.134 746.195 213.806 746.195Z" fill="white"/>
<path d="M320.892 654.441C320.892 655.172 321.379 655.658 322.109 655.658C322.839 655.658 323.326 655.172 323.326 654.441C323.326 653.711 322.839 653.225 322.109 653.225C321.379 653.225 320.892 653.711 320.892 654.441Z" fill="white"/>
<path d="M361.536 652.982C362.209 652.982 362.753 652.437 362.753 651.765C362.753 651.093 362.209 650.548 361.536 650.548C360.864 650.548 360.32 651.093 360.32 651.765C360.32 652.437 360.864 652.982 361.536 652.982Z" fill="white"/>
<path d="M160.02 604.793C160.692 604.793 161.237 604.248 161.237 603.576C161.237 602.904 160.692 602.359 160.02 602.359C159.348 602.359 158.803 602.904 158.803 603.576C158.803 604.248 159.348 604.793 160.02 604.793Z" fill="white"/>
<path d="M198.474 601.143C198.474 601.873 198.96 602.36 199.69 602.36C200.421 602.36 200.907 601.873 200.907 601.143C200.907 600.413 200.421 599.926 199.69 599.926C198.96 599.926 198.474 600.413 198.474 601.143Z" fill="white"/>
<path d="M600.776 815.801C600.776 816.775 601.506 817.505 602.48 817.505C603.453 817.505 604.184 816.775 604.184 815.801C604.184 814.828 603.453 814.098 602.48 814.098C601.75 814.098 600.776 814.828 600.776 815.801Z" fill="white"/>
<path d="M812.272 771.506C812.272 772.48 813.002 773.21 813.975 773.21C814.949 773.21 815.679 772.48 815.679 771.506C815.679 770.533 814.949 769.803 813.975 769.803C813.002 769.803 812.272 770.533 812.272 771.506Z" fill="white"/>
<path d="M195.797 514.743C195.797 515.717 196.527 516.447 197.5 516.447C198.474 516.447 199.204 515.717 199.204 514.743C199.204 513.77 198.474 513.04 197.5 513.04C196.77 512.796 195.797 513.527 195.797 514.743Z" fill="white"/>
<path d="M908.649 471.666C909.59 471.666 910.353 470.903 910.353 469.962C910.353 469.021 909.59 468.258 908.649 468.258C907.708 468.258 906.946 469.021 906.946 469.962C906.946 470.903 907.708 471.666 908.649 471.666Z" fill="white"/>
<path d="M812.028 769.316C812.028 770.046 812.515 770.532 813.245 770.532C813.975 770.532 814.462 770.046 814.462 769.316C814.462 768.585 813.975 768.099 813.245 768.099C812.515 768.099 812.028 768.829 812.028 769.316Z" fill="white"/>
<path d="M711.027 730.862C711.027 731.593 711.513 732.079 712.243 732.079C712.974 732.079 713.46 731.593 713.46 730.862C713.46 730.132 712.974 729.646 712.243 729.646C711.757 729.889 711.027 730.376 711.027 730.862Z" fill="white"/>
<path d="M776.982 691.192C777.654 691.192 778.199 690.647 778.199 689.975C778.199 689.303 777.654 688.758 776.982 688.758C776.31 688.758 775.765 689.303 775.765 689.975C775.765 690.647 776.31 691.192 776.982 691.192Z" fill="white"/>
<path d="M785.987 518.15C785.987 518.881 786.474 519.367 787.204 519.367C787.934 519.367 788.421 518.881 788.421 518.15C788.421 517.42 787.934 516.934 787.204 516.934C786.474 517.177 785.987 517.664 785.987 518.15Z" fill="white"/>
<path d="M450.856 734.027C450.856 735 451.586 735.73 452.56 735.73C453.533 735.73 454.263 735 454.263 734.027C454.263 733.053 453.533 732.323 452.56 732.323C451.586 732.08 450.856 733.053 450.856 734.027Z" fill="white"/>
<path d="M679.144 500.871C679.144 501.601 679.631 502.088 680.361 502.088C681.091 502.088 681.578 501.601 681.578 500.871C681.578 500.141 681.091 499.654 680.361 499.654C679.631 499.654 679.144 500.141 679.144 500.871Z" fill="white"/>
<path d="M497.341 625.723C497.341 626.697 498.071 627.427 499.045 627.427C500.018 627.427 500.748 626.697 500.748 625.723C500.748 624.75 500.018 624.02 499.045 624.02C498.314 624.02 497.341 624.75 497.341 625.723Z" fill="white"/>
<path d="M710.54 583.132C711.481 583.132 712.243 582.37 712.243 581.429C712.243 580.488 711.481 579.725 710.54 579.725C709.599 579.725 708.836 580.488 708.836 581.429C708.836 582.37 709.599 583.132 710.54 583.132Z" fill="white"/>
<path d="M674.276 685.108C674.948 685.108 675.493 684.563 675.493 683.891C675.493 683.219 674.948 682.674 674.276 682.674C673.604 682.674 673.059 683.219 673.059 683.891C673.059 684.563 673.604 685.108 674.276 685.108Z" fill="white"/>
<path d="M776.495 749.116C776.495 749.846 776.982 750.333 777.712 750.333C778.442 750.333 778.929 749.846 778.929 749.116C778.929 748.386 778.442 747.899 777.712 747.899C776.982 747.899 776.495 748.386 776.495 749.116Z" fill="white"/>
<path d="M570.354 686.081C570.354 686.811 570.841 687.298 571.571 687.298C572.302 687.298 572.788 686.811 572.788 686.081C572.788 685.351 572.302 684.864 571.571 684.864C570.841 684.864 570.354 685.351 570.354 686.081Z" fill="white"/>
<path d="M461.565 746.44C462.237 746.44 462.782 745.895 462.782 745.223C462.782 744.551 462.237 744.006 461.565 744.006C460.893 744.006 460.348 744.551 460.348 745.223C460.348 745.895 460.893 746.44 461.565 746.44Z" fill="white"/>
<path d="M642.881 680.726C642.881 681.699 643.611 682.429 644.585 682.429C645.558 682.429 646.288 681.699 646.288 680.726C646.288 679.752 645.558 679.022 644.585 679.022C643.611 678.779 642.881 679.509 642.881 680.726Z" fill="white"/>
<path d="M316.999 170.851C316.999 171.581 317.485 172.068 318.215 172.068C318.946 172.068 319.432 171.581 319.432 170.851C319.432 170.121 318.946 169.634 318.215 169.634C317.485 169.634 316.999 170.121 316.999 170.851Z" fill="white"/>
<path d="M606.861 248.245C606.861 248.975 607.348 249.462 608.078 249.462C608.808 249.462 609.295 248.975 609.295 248.245C609.295 247.515 608.808 247.028 608.078 247.028C607.348 247.272 606.861 247.758 606.861 248.245Z" fill="white"/>
<path d="M135.195 295.704C135.195 296.677 135.926 297.407 136.899 297.407C137.873 297.407 138.603 296.677 138.603 295.704C138.603 294.73 137.873 294 136.899 294C135.926 294 135.195 294.73 135.195 295.704Z" fill="white"/>
<path d="M346.447 251.409C346.447 252.383 347.177 253.113 348.151 253.113C349.124 253.113 349.854 252.383 349.854 251.409C349.854 250.436 349.124 249.706 348.151 249.706C347.421 249.706 346.447 250.436 346.447 251.409Z" fill="white"/>
<path d="M310.914 353.871C310.914 354.601 311.401 355.088 312.131 355.088C312.861 355.088 313.348 354.601 313.348 353.871C313.348 353.141 312.861 352.654 312.131 352.654C311.401 352.654 310.914 353.141 310.914 353.871Z" fill="white"/>
<path d="M415.323 420.313C415.995 420.313 416.54 419.768 416.54 419.096C416.54 418.424 415.995 417.879 415.323 417.879C414.651 417.879 414.106 418.424 414.106 419.096C414.106 419.768 414.651 420.313 415.323 420.313Z" fill="white"/>
<path d="M209.182 357.278C209.854 357.278 210.399 356.733 210.399 356.061C210.399 355.389 209.854 354.844 209.182 354.844C208.51 354.844 207.965 355.389 207.965 356.061C207.965 356.733 208.51 357.278 209.182 357.278Z" fill="white"/>
<path d="M568.894 201.273C568.894 202.003 569.381 202.49 570.111 202.49C570.841 202.49 571.328 202.003 571.328 201.273C571.328 200.543 570.841 200.056 570.111 200.056C569.381 200.3 568.894 200.786 568.894 201.273Z" fill="white"/>
<path d="M317.485 266.498C318.157 266.498 318.702 265.953 318.702 265.281C318.702 264.609 318.157 264.064 317.485 264.064C316.813 264.064 316.268 264.609 316.268 265.281C316.268 265.953 316.813 266.498 317.485 266.498Z" fill="white"/>
<path d="M466.189 203.464C466.189 204.194 466.675 204.681 467.406 204.681C468.136 204.681 468.622 204.194 468.622 203.464C468.622 202.734 468.136 202.247 467.406 202.247C466.675 202.49 466.189 202.977 466.189 203.464Z" fill="white"/>
<path d="M355.939 262.848C355.939 263.578 356.426 264.065 357.156 264.065C357.886 264.065 358.373 263.578 358.373 262.848C358.373 262.118 357.886 261.631 357.156 261.631C356.426 261.631 355.939 262.118 355.939 262.848Z" fill="white"/>
<path d="M540.419 199.813C541.36 199.813 542.123 199.05 542.123 198.109C542.123 197.168 541.36 196.405 540.419 196.405C539.478 196.405 538.715 197.168 538.715 198.109C538.715 199.05 539.478 199.813 540.419 199.813Z" fill="white"/>
<path d="M29.8133 185.941C29.8133 186.671 30.3 187.157 31.0302 187.157C31.7603 187.157 32.2471 186.671 32.2471 185.941C32.2471 185.21 31.7603 184.724 31.0302 184.724C30.3 184.967 29.8133 185.454 29.8133 185.941Z" fill="white"/>
<path d="M142.74 262.848C143.412 262.848 143.957 262.303 143.957 261.631C143.957 260.959 143.412 260.414 142.74 260.414C142.068 260.414 141.523 260.959 141.523 261.631C141.523 262.303 142.068 262.848 142.74 262.848Z" fill="white"/>
<path d="M13.9936 157.952C14.6657 157.952 15.2105 157.408 15.2105 156.735C15.2105 156.063 14.6657 155.519 13.9936 155.519C13.3216 155.519 12.7767 156.063 12.7767 156.735C12.7767 157.408 13.3216 157.952 13.9936 157.952Z" fill="white"/>
<path d="M40.7651 314.931C40.7651 315.661 41.2518 316.148 41.982 316.148C42.7121 316.148 43.1989 315.661 43.1989 314.931C43.1989 314.201 42.7121 313.714 41.982 313.714C41.2518 313.957 40.7651 314.444 40.7651 314.931Z" fill="white"/>
<path d="M181.194 259.197C181.194 259.927 181.68 260.414 182.411 260.414C183.141 260.414 183.628 259.927 183.628 259.197C183.628 258.467 183.141 257.98 182.411 257.98C181.68 257.98 181.194 258.467 181.194 259.197Z" fill="white"/>
<path d="M110.128 404.98C110.128 405.71 110.614 406.197 111.345 406.197C112.075 406.197 112.561 405.71 112.561 404.98C112.561 404.25 112.075 403.763 111.345 403.763C110.858 403.763 110.128 404.25 110.128 404.98Z" fill="white"/>
<path d="M193.606 369.934C194.278 369.934 194.823 369.389 194.823 368.717C194.823 368.045 194.278 367.5 193.606 367.5C192.934 367.5 192.389 368.045 192.389 368.717C192.389 369.389 192.934 369.934 193.606 369.934Z" fill="white"/>
<path d="M11.8028 422.504C12.4749 422.504 13.0197 421.959 13.0197 421.287C13.0197 420.615 12.4749 420.07 11.8028 420.07C11.1308 420.07 10.5859 420.615 10.5859 421.287C10.5859 421.959 11.1308 422.504 11.8028 422.504Z" fill="white"/>
<path d="M9.85626 336.591C10.7972 336.591 11.5599 335.828 11.5599 334.887C11.5599 333.946 10.7972 333.184 9.85626 333.184C8.91536 333.184 8.15259 333.946 8.15259 334.887C8.15259 335.828 8.91536 336.591 9.85626 336.591Z" fill="white"/>
<path d="M53.1775 227.071C54.1184 227.071 54.8811 226.308 54.8811 225.367C54.8811 224.426 54.1184 223.664 53.1775 223.664C52.2366 223.664 51.4739 224.426 51.4739 225.367C51.4739 226.308 52.2366 227.071 53.1775 227.071Z" fill="white"/>
<path d="M16.9141 352.167C16.9141 352.897 16.4273 353.384 15.6972 353.384C14.967 353.384 14.4803 352.897 14.4803 352.167C14.4803 351.437 14.967 350.95 15.6972 350.95C16.1839 350.95 16.9141 351.437 16.9141 352.167Z" fill="white"/>
<path d="M253.233 578.508C253.906 578.508 254.45 577.964 254.45 577.292C254.45 576.62 253.906 576.075 253.233 576.075C252.561 576.075 252.017 576.62 252.017 577.292C252.017 577.964 252.561 578.508 253.233 578.508Z" fill="white"/>
<path d="M544.556 652.494C545.228 652.494 545.773 651.95 545.773 651.277C545.773 650.605 545.228 650.061 544.556 650.061C543.884 650.061 543.339 650.605 543.339 651.277C543.339 651.95 543.884 652.494 544.556 652.494Z" fill="white"/>
<path d="M135.439 652.495C135.439 653.225 134.952 653.712 134.222 653.712C133.492 653.712 133.005 653.225 133.005 652.495C133.005 651.765 133.492 651.278 134.222 651.278C134.952 651.278 135.439 651.765 135.439 652.495Z" fill="white"/>
<path d="M694.477 529.833C694.477 530.563 693.99 531.049 693.26 531.049C692.53 531.049 692.043 530.563 692.043 529.833C692.043 529.102 692.53 528.616 693.26 528.616C693.99 528.616 694.477 529.102 694.477 529.833Z" fill="white"/>
<path d="M662.594 712.609C662.594 713.34 662.107 713.826 661.377 713.826C660.647 713.826 660.16 713.34 660.16 712.609C660.16 711.879 660.647 711.393 661.377 711.393C661.864 711.393 662.594 711.879 662.594 712.609Z" fill="white"/>
<path d="M599.56 487.972C599.56 488.702 599.073 489.189 598.343 489.189C597.613 489.189 597.126 488.702 597.126 487.972C597.126 487.242 597.613 486.755 598.343 486.755C599.073 486.755 599.56 487.242 599.56 487.972Z" fill="white"/>
<path d="M373.219 579.725C373.219 580.455 372.732 580.942 372.002 580.942C371.272 580.942 370.785 580.455 370.785 579.725C370.785 578.995 371.272 578.508 372.002 578.508C372.732 578.508 373.219 578.995 373.219 579.725Z" fill="white"/>
<path d="M500.262 648.114C500.262 648.844 499.775 649.331 499.045 649.331C498.315 649.331 497.828 648.844 497.828 648.114C497.828 647.384 498.315 646.897 499.045 646.897C499.775 646.897 500.262 647.384 500.262 648.114Z" fill="white"/>
<path d="M853.646 553.197C854.318 553.197 854.862 552.652 854.862 551.98C854.862 551.308 854.318 550.763 853.646 550.763C852.974 550.763 852.429 551.308 852.429 551.98C852.429 552.652 852.974 553.197 853.646 553.197Z" fill="white"/>
<path d="M970.223 614.529C970.896 614.529 971.44 613.984 971.44 613.312C971.44 612.64 970.896 612.095 970.223 612.095C969.551 612.095 969.007 612.64 969.007 613.312C969.007 613.984 969.551 614.529 970.223 614.529Z" fill="white"/>
<path d="M808.134 550.033C808.806 550.033 809.351 549.489 809.351 548.816C809.351 548.144 808.806 547.6 808.134 547.6C807.462 547.6 806.917 548.144 806.917 548.816C806.917 549.489 807.462 550.033 808.134 550.033Z" fill="white"/>
<path d="M414.106 251.409C414.106 252.626 413.133 253.6 411.916 253.6C410.699 253.6 409.725 252.626 409.725 251.409C409.725 250.192 410.699 249.219 411.916 249.219C413.133 249.219 414.106 250.192 414.106 251.409Z" fill="white"/>
<path d="M170.242 200.3C170.242 201.517 169.268 202.49 168.052 202.49C166.835 202.49 165.861 201.517 165.861 200.3C165.861 199.083 166.835 198.109 168.052 198.109C169.268 198.109 170.242 199.083 170.242 200.3Z" fill="white"/>
<path d="M295.094 382.589C295.094 383.806 294.121 384.78 292.904 384.78C291.687 384.78 290.714 383.806 290.714 382.589C290.714 381.372 291.687 380.399 292.904 380.399C294.121 380.399 295.094 381.372 295.094 382.589Z" fill="white"/>
<path d="M812.515 449.031C812.515 450.248 811.541 451.222 810.324 451.222C809.108 451.222 808.134 450.248 808.134 449.031C808.134 447.814 809.108 446.841 810.324 446.841C811.541 446.841 812.515 448.058 812.515 449.031Z" fill="white"/>
<path d="M891.856 356.548C891.856 357.278 891.369 357.765 890.639 357.765C889.909 357.765 889.422 357.278 889.422 356.548C889.422 355.818 889.909 355.331 890.639 355.331C891.126 355.088 891.856 355.818 891.856 356.548Z" fill="white"/>
<path d="M1289.05 255.546C1289.05 256.763 1288.07 257.737 1286.86 257.737C1285.64 257.737 1284.67 256.763 1284.67 255.546C1284.67 254.329 1285.64 253.356 1286.86 253.356C1288.07 253.356 1289.05 254.573 1289.05 255.546Z" fill="white"/>
<path d="M1043.24 206.628C1044.45 206.628 1045.43 205.647 1045.43 204.437C1045.43 203.228 1044.45 202.247 1043.24 202.247C1042.03 202.247 1041.05 203.228 1041.05 204.437C1041.05 205.647 1042.03 206.628 1043.24 206.628Z" fill="white"/>
<path d="M1170.04 386.727C1170.04 387.944 1169.06 388.917 1167.85 388.917C1166.63 388.917 1165.66 387.944 1165.66 386.727C1165.66 385.51 1166.63 384.537 1167.85 384.537C1169.06 384.537 1170.04 385.51 1170.04 386.727Z" fill="white"/>
<path d="M866.788 401.816C866.788 403.033 865.814 404.007 864.598 404.007C863.381 404.007 862.407 403.033 862.407 401.816C862.407 400.6 863.381 399.626 864.598 399.626C865.814 399.626 866.788 400.6 866.788 401.816Z" fill="white"/>
<path d="M735.364 690.705C735.364 689.975 735.851 689.488 736.581 689.488C737.311 689.488 737.798 689.975 737.798 690.705C737.798 691.435 737.311 691.922 736.581 691.922C735.851 691.922 735.364 691.435 735.364 690.705Z" fill="white"/>
<path d="M963.409 787.083C963.409 786.353 963.895 785.866 964.626 785.866C965.356 785.866 965.842 786.353 965.842 787.083C965.842 787.813 965.356 788.3 964.626 788.3C963.895 788.3 963.409 787.813 963.409 787.083Z" fill="white"/>
<path d="M1090.94 761.527C1090.94 760.797 1091.43 760.311 1092.16 760.311C1092.89 760.311 1093.37 760.797 1093.37 761.527C1093.37 762.258 1092.89 762.744 1092.16 762.744C1091.43 762.744 1090.94 762.258 1090.94 761.527Z" fill="white"/>
<path d="M529.223 495.76C529.223 495.03 529.71 494.543 530.44 494.543C531.17 494.543 531.657 495.03 531.657 495.76C531.657 496.49 531.17 496.977 530.44 496.977C529.71 496.977 529.223 496.247 529.223 495.76Z" fill="white"/>
<path d="M276.842 431.752C276.842 431.021 277.328 430.535 278.059 430.535C278.789 430.535 279.275 431.021 279.275 431.752C279.275 432.482 278.789 432.968 278.059 432.968C277.328 432.725 276.842 432.238 276.842 431.752Z" fill="white"/>
<path d="M632.415 430.535C632.415 429.805 632.902 429.318 633.632 429.318C634.362 429.318 634.849 429.805 634.849 430.535C634.849 431.265 634.362 431.752 633.632 431.752C632.902 431.752 632.415 431.265 632.415 430.535Z" fill="white"/>
<path d="M148.095 536.891C148.095 536.161 148.581 535.674 149.311 535.674C150.042 535.674 150.528 536.161 150.528 536.891C150.528 537.621 150.042 538.108 149.311 538.108C148.581 537.864 148.095 537.377 148.095 536.891Z" fill="white"/>
<path d="M175.839 378.452C175.839 377.722 176.326 377.235 177.056 377.235C177.786 377.235 178.273 377.722 178.273 378.452C178.273 379.182 177.786 379.669 177.056 379.669C176.326 379.669 175.839 378.939 175.839 378.452Z" fill="white"/>
<path d="M231.573 574.371C232.245 574.371 232.79 573.826 232.79 573.154C232.79 572.482 232.245 571.938 231.573 571.938C230.901 571.938 230.356 572.482 230.356 573.154C230.356 573.826 230.901 574.371 231.573 574.371Z" fill="white"/>
<path d="M1033.74 252.626C1033.74 251.895 1034.23 251.409 1034.96 251.409C1035.69 251.409 1036.18 251.895 1036.18 252.626C1036.18 253.356 1035.69 253.842 1034.96 253.842C1034.23 253.599 1033.74 253.112 1033.74 252.626Z" fill="white"/>
<path d="M922.521 352.897C922.521 352.167 923.008 351.68 923.738 351.68C924.468 351.68 924.955 352.167 924.955 352.897C924.955 353.627 924.468 354.114 923.738 354.114C923.008 354.114 922.521 353.627 922.521 352.897Z" fill="white"/>
<path d="M932.743 199.326C932.743 198.596 933.23 198.109 933.96 198.109C934.69 198.109 935.177 198.596 935.177 199.326C935.177 200.056 934.69 200.543 933.96 200.543C933.23 200.3 932.743 199.813 932.743 199.326Z" fill="white"/>
<path d="M987.016 394.028C987.016 393.298 987.503 392.811 988.233 392.811C988.963 392.811 989.45 393.298 989.45 394.028C989.45 394.758 988.963 395.245 988.233 395.245C987.746 395.001 987.016 394.515 987.016 394.028Z" fill="white"/>
<path d="M997.238 565.609C997.238 564.879 997.725 564.392 998.455 564.392C999.185 564.392 999.672 564.879 999.672 565.609C999.672 566.339 999.185 566.826 998.455 566.826C997.725 566.826 997.238 566.339 997.238 565.609Z" fill="white"/>
<path d="M426.518 493.569C426.518 492.839 427.005 492.353 427.735 492.353C428.465 492.353 428.952 492.839 428.952 493.569C428.952 494.3 428.465 494.786 427.735 494.786C427.005 494.786 426.518 494.3 426.518 493.569Z" fill="white"/>
<path d="M317.485 435.646C318.157 435.646 318.702 435.101 318.702 434.429C318.702 433.757 318.157 433.212 317.485 433.212C316.813 433.212 316.268 433.757 316.268 434.429C316.268 435.101 316.813 435.646 317.485 435.646Z" fill="white"/>
<path d="M8.88287 517.664C8.88287 516.934 9.36963 516.447 10.0998 516.447C10.8299 516.447 11.3166 516.934 11.3166 517.664C11.3166 518.394 10.8299 518.881 10.0998 518.881C9.36963 518.881 8.88287 518.394 8.88287 517.664Z" fill="white"/>
<path d="M49.5266 521.558C50.1987 521.558 50.7435 521.013 50.7435 520.341C50.7435 519.669 50.1987 519.125 49.5266 519.125C48.8546 519.125 48.3098 519.669 48.3098 520.341C48.3098 521.013 48.8546 521.558 49.5266 521.558Z" fill="white"/>
<path d="M392.689 779.781C393.63 779.781 394.393 779.019 394.393 778.078C394.393 777.137 393.63 776.374 392.689 776.374C391.748 776.374 390.985 777.137 390.985 778.078C390.985 779.019 391.748 779.781 392.689 779.781Z" fill="white"/>
<path d="M604.184 824.075C605.125 824.075 605.887 823.312 605.887 822.372C605.887 821.431 605.125 820.668 604.184 820.668C603.243 820.668 602.48 821.431 602.48 822.372C602.48 823.312 603.243 824.075 604.184 824.075Z" fill="white"/>
<path d="M495.881 666.367C496.822 666.367 497.584 665.605 497.584 664.664C497.584 663.723 496.822 662.96 495.881 662.96C494.94 662.96 494.177 663.723 494.177 664.664C494.177 665.605 494.94 666.367 495.881 666.367Z" fill="white"/>
<path d="M47.5798 608.444C48.5207 608.444 49.2834 607.682 49.2834 606.741C49.2834 605.8 48.5207 605.037 47.5798 605.037C46.6389 605.037 45.8762 605.8 45.8762 606.741C45.8762 607.682 46.6389 608.444 47.5798 608.444Z" fill="white"/>
<path d="M756.781 651.522C756.781 650.549 757.512 649.818 758.485 649.818C759.459 649.818 760.189 650.549 760.189 651.522C760.189 652.496 759.459 653.226 758.485 653.226C757.755 653.469 756.781 652.496 756.781 651.522Z" fill="white"/>
<path d="M1447.97 326.369C1447.97 327.099 1447.49 327.586 1446.76 327.586C1446.03 327.586 1445.54 327.099 1445.54 326.369C1445.54 325.639 1446.03 325.152 1446.76 325.152C1447.49 325.152 1447.97 325.639 1447.97 326.369Z" fill="white"/>
<path d="M1436.53 539.568C1436.53 540.298 1436.05 540.785 1435.32 540.785C1434.59 540.785 1434.1 540.298 1434.1 539.568C1434.1 538.838 1434.59 538.351 1435.32 538.351C1436.05 538.594 1436.53 539.081 1436.53 539.568Z" fill="white"/>
<path d="M1470.12 256.763C1471.06 256.763 1471.82 256.001 1471.82 255.06C1471.82 254.119 1471.06 253.356 1470.12 253.356C1469.18 253.356 1468.42 254.119 1468.42 255.06C1468.42 256.001 1469.18 256.763 1470.12 256.763Z" fill="white"/>
<path d="M1366.93 370.42C1367.87 370.42 1368.63 369.658 1368.63 368.717C1368.63 367.776 1367.87 367.013 1366.93 367.013C1365.99 367.013 1365.23 367.776 1365.23 368.717C1365.23 369.658 1365.99 370.42 1366.93 370.42Z" fill="white"/>
<path d="M1434.1 268.202C1434.1 268.932 1433.61 269.419 1432.88 269.419C1432.15 269.419 1431.67 268.932 1431.67 268.202C1431.67 267.472 1432.15 266.985 1432.88 266.985C1433.61 266.985 1434.1 267.472 1434.1 268.202Z" fill="white"/>
<path d="M1305.6 294.973C1306.27 294.973 1306.81 294.429 1306.81 293.756C1306.81 293.084 1306.27 292.54 1305.6 292.54C1304.93 292.54 1304.38 293.084 1304.38 293.756C1304.38 294.429 1304.93 294.973 1305.6 294.973Z" fill="white"/>
<path d="M1474.99 702.144C1474.99 702.874 1474.5 703.361 1473.77 703.361C1473.04 703.361 1472.55 702.874 1472.55 702.144C1472.55 701.414 1473.04 700.927 1473.77 700.927C1474.5 701.17 1474.99 701.657 1474.99 702.144Z" fill="white"/>
<path d="M1410.49 661.256C1410.49 661.986 1410.01 662.473 1409.28 662.473C1408.55 662.473 1408.06 661.986 1408.06 661.256C1408.06 660.526 1408.55 660.039 1409.28 660.039C1410.01 660.039 1410.49 660.769 1410.49 661.256Z" fill="white"/>
<path d="M1399.3 490.892C1399.97 490.892 1400.51 490.347 1400.51 489.675C1400.51 489.003 1399.97 488.458 1399.3 488.458C1398.63 488.458 1398.08 489.003 1398.08 489.675C1398.08 490.347 1398.63 490.892 1399.3 490.892Z" fill="white"/>
<path d="M1308.28 332.211C1308.28 332.941 1307.79 333.427 1307.06 333.427C1306.33 333.427 1305.84 332.941 1305.84 332.211C1305.84 331.48 1306.33 330.994 1307.06 330.994C1307.79 330.994 1308.28 331.48 1308.28 332.211Z" fill="white"/>
<path d="M1180.75 357.765C1180.75 358.495 1180.26 358.982 1179.53 358.982C1178.8 358.982 1178.31 358.495 1178.31 357.765C1178.31 357.035 1178.8 356.548 1179.53 356.548C1180.26 356.548 1180.75 357.035 1180.75 357.765Z" fill="white"/>
<path d="M1274.45 553.684C1274.45 554.414 1273.96 554.901 1273.23 554.901C1272.5 554.901 1272.01 554.414 1272.01 553.684C1272.01 552.954 1272.5 552.467 1273.23 552.467C1273.96 552.467 1274.45 552.954 1274.45 553.684Z" fill="white"/>
<path d="M1447.49 527.886C1447.49 528.616 1447 529.103 1446.27 529.103C1445.54 529.103 1445.05 528.616 1445.05 527.886C1445.05 527.156 1445.54 526.669 1446.27 526.669C1447 526.669 1447.49 527.156 1447.49 527.886Z" fill="white"/>
<path d="M1365.23 491.622C1365.23 492.352 1364.74 492.839 1364.01 492.839C1363.28 492.839 1362.79 492.352 1362.79 491.622C1362.79 490.892 1363.28 490.405 1364.01 490.405C1364.74 490.405 1365.23 490.892 1365.23 491.622Z" fill="white"/>
<path d="M1168.09 572.18C1168.76 572.18 1169.31 571.636 1169.31 570.963C1169.31 570.291 1168.76 569.747 1168.09 569.747C1167.42 569.747 1166.87 570.291 1166.87 570.963C1166.87 571.636 1167.42 572.18 1168.09 572.18Z" fill="white"/>
<path d="M1204.6 286.456C1204.6 287.429 1203.87 288.159 1202.89 288.159C1201.92 288.159 1201.19 287.429 1201.19 286.456C1201.19 285.482 1201.92 284.752 1202.89 284.752C1203.87 284.752 1204.6 285.482 1204.6 286.456Z" fill="white"/>
<path d="M1512.96 469.475C1513.9 469.475 1514.66 468.712 1514.66 467.772C1514.66 466.831 1513.9 466.068 1512.96 466.068C1512.01 466.068 1511.25 466.831 1511.25 467.772C1511.25 468.712 1512.01 469.475 1512.96 469.475Z" fill="white"/>
<path d="M1393.94 396.948C1394.62 396.948 1395.16 396.404 1395.16 395.732C1395.16 395.059 1394.62 394.515 1393.94 394.515C1393.27 394.515 1392.73 395.059 1392.73 395.732C1392.73 396.404 1393.27 396.948 1393.94 396.948Z" fill="white"/>
<path d="M1526.1 265.769C1527.04 265.769 1527.8 265.006 1527.8 264.065C1527.8 263.124 1527.04 262.361 1526.1 262.361C1525.16 262.361 1524.39 263.124 1524.39 264.065C1524.39 265.006 1525.16 265.769 1526.1 265.769Z" fill="white"/>
<path d="M1373.26 435.159C1373.26 436.132 1372.53 436.863 1371.55 436.863C1370.58 436.863 1369.85 436.132 1369.85 435.159C1369.85 434.185 1370.58 433.455 1371.55 433.455C1372.53 433.212 1373.26 433.942 1373.26 435.159Z" fill="white"/>
<path d="M1471.82 638.379C1472.77 638.379 1473.53 637.616 1473.53 636.675C1473.53 635.734 1472.77 634.972 1471.82 634.972C1470.88 634.972 1470.12 635.734 1470.12 636.675C1470.12 637.616 1470.88 638.379 1471.82 638.379Z" fill="white"/>
<path d="M1498.35 295.704C1499.02 295.704 1499.57 295.159 1499.57 294.487C1499.57 293.815 1499.02 293.27 1498.35 293.27C1497.68 293.27 1497.14 293.815 1497.14 294.487C1497.14 295.159 1497.68 295.704 1498.35 295.704Z" fill="white"/>
<path d="M1495.19 414.229C1496.13 414.229 1496.89 413.466 1496.89 412.525C1496.89 411.584 1496.13 410.821 1495.19 410.821C1494.25 410.821 1493.48 411.584 1493.48 412.525C1493.48 413.466 1494.25 414.229 1495.19 414.229Z" fill="white"/>
<path d="M1513.2 277.694C1513.2 278.667 1513.93 279.398 1514.9 279.398C1515.88 279.398 1516.61 278.667 1516.61 277.694C1516.61 276.72 1515.88 275.99 1514.9 275.99C1513.93 275.99 1513.2 276.72 1513.2 277.694Z" fill="white"/>
<path d="M1478.15 306.412C1478.15 307.142 1477.67 307.629 1476.94 307.629C1476.21 307.629 1475.72 307.142 1475.72 306.412C1475.72 305.682 1476.21 305.195 1476.94 305.195C1477.42 305.195 1478.15 305.682 1478.15 306.412Z" fill="white"/>
<path d="M1329.69 337.078C1330.36 337.078 1330.91 336.533 1330.91 335.861C1330.91 335.189 1330.36 334.644 1329.69 334.644C1329.02 334.644 1328.48 335.189 1328.48 335.861C1328.48 336.533 1329.02 337.078 1329.69 337.078Z" fill="white"/>
<path d="M975.578 467.771C976.788 467.771 977.768 466.791 977.768 465.581C977.768 464.371 976.788 463.391 975.578 463.391C974.368 463.391 973.387 464.371 973.387 465.581C973.387 466.791 974.368 467.771 975.578 467.771Z" fill="white"/>
<path d="M1136.69 536.404C1136.69 537.134 1136.21 537.621 1135.48 537.621C1134.75 537.621 1134.26 537.134 1134.26 536.404C1134.26 535.674 1134.75 535.187 1135.48 535.187C1136.21 535.187 1136.69 535.674 1136.69 536.404Z" fill="white"/>
<path d="M1160.54 465.094C1160.54 466.068 1159.81 466.798 1158.84 466.798C1157.87 466.798 1157.14 466.068 1157.14 465.094C1157.14 464.121 1157.87 463.391 1158.84 463.391C1159.81 463.391 1160.54 464.121 1160.54 465.094Z" fill="white"/>
<path d="M1057.35 578.751C1057.35 579.725 1056.62 580.455 1055.65 580.455C1054.68 580.455 1053.95 579.725 1053.95 578.751C1053.95 577.778 1054.68 577.048 1055.65 577.048C1056.62 576.804 1057.35 577.534 1057.35 578.751Z" fill="white"/>
<path d="M1122.82 477.993C1122.82 478.723 1122.33 479.21 1121.6 479.21C1120.87 479.21 1120.39 478.723 1120.39 477.993C1120.39 477.263 1120.87 476.776 1121.6 476.776C1122.33 477.02 1122.82 477.506 1122.82 477.993Z" fill="white"/>
<path d="M995.291 503.548C995.291 504.278 994.805 504.765 994.075 504.765C993.344 504.765 992.858 504.278 992.858 503.548C992.858 502.818 993.344 502.331 994.075 502.331C994.805 502.574 995.291 503.061 995.291 503.548Z" fill="white"/>
<path d="M996.752 542.002C996.752 542.732 996.265 543.218 995.535 543.218C994.805 543.218 994.318 542.732 994.318 542.002C994.318 541.271 994.805 540.785 995.535 540.785C996.265 541.028 996.752 541.515 996.752 542.002Z" fill="white"/>
<path d="M1083.64 605.767C1083.64 606.497 1083.15 606.984 1082.42 606.984C1081.69 606.984 1081.2 606.497 1081.2 605.767C1081.2 605.037 1081.69 604.55 1082.42 604.55C1083.15 604.55 1083.64 605.28 1083.64 605.767Z" fill="white"/>
<path d="M1216.52 474.099C1216.52 475.073 1215.79 475.803 1214.82 475.803C1213.84 475.803 1213.11 475.073 1213.11 474.099C1213.11 473.126 1213.84 472.396 1214.82 472.396C1215.79 472.396 1216.52 473.126 1216.52 474.099Z" fill="white"/>
<path d="M1185.86 504.278C1185.86 505.008 1186.34 505.495 1187.07 505.495C1187.8 505.495 1188.29 505.008 1188.29 504.278C1188.29 503.548 1187.8 503.061 1187.07 503.061C1186.34 503.304 1185.86 503.791 1185.86 504.278Z" fill="white"/>
<path d="M1183.67 624.264C1184.61 624.264 1185.37 623.501 1185.37 622.56C1185.37 621.619 1184.61 620.856 1183.67 620.856C1182.72 620.856 1181.96 621.619 1181.96 622.56C1181.96 623.501 1182.72 624.264 1183.67 624.264Z" fill="white"/>
<path d="M1203.62 489.432C1204.56 489.432 1205.33 488.669 1205.33 487.729C1205.33 486.788 1204.56 486.025 1203.62 486.025C1202.68 486.025 1201.92 486.788 1201.92 487.729C1201.92 488.669 1202.68 489.432 1203.62 489.432Z" fill="white"/>
<path d="M1166.63 516.447C1166.63 517.177 1166.14 517.664 1165.41 517.664C1164.68 517.664 1164.2 517.177 1164.2 516.447C1164.2 515.717 1164.68 515.23 1165.41 515.23C1166.14 515.23 1166.63 515.717 1166.63 516.447Z" fill="white"/>
<path d="M1018.41 547.112C1019.08 547.112 1019.63 546.568 1019.63 545.896C1019.63 545.224 1019.08 544.679 1018.41 544.679C1017.74 544.679 1017.2 545.224 1017.2 545.896C1017.2 546.568 1017.74 547.112 1018.41 547.112Z" fill="white"/>
<path d="M1449.43 761.528C1450.11 761.528 1450.65 760.983 1450.65 760.311C1450.65 759.639 1450.11 759.094 1449.43 759.094C1448.76 759.094 1448.22 759.639 1448.22 760.311C1448.22 760.983 1448.76 761.528 1449.43 761.528Z" fill="white"/>
<path d="M1437.75 563.175C1438.42 563.175 1438.97 562.631 1438.97 561.959C1438.97 561.287 1438.42 560.742 1437.75 560.742C1437.08 560.742 1436.53 561.287 1436.53 561.959C1436.53 562.631 1437.08 563.175 1437.75 563.175Z" fill="white"/>
<path d="M1462.33 727.941C1463.27 727.941 1464.04 727.179 1464.04 726.238C1464.04 725.297 1463.27 724.534 1462.33 724.534C1461.39 724.534 1460.63 725.297 1460.63 726.238C1460.63 727.179 1461.39 727.941 1462.33 727.941Z" fill="white"/>
<path d="M0.607712 649.574C1.54861 649.574 2.31138 648.812 2.31138 647.871C2.31138 646.93 1.54861 646.167 0.607712 646.167C-0.333184 646.167 -1.09589 646.93 -1.09589 647.871C-1.09589 648.812 -0.333184 649.574 0.607712 649.574Z" fill="white"/>
</g>
</svg>
